<svg width="32" height="32" viewBox="0 0 32 32" fill="none" xmlns="http://www.w3.org/2000/svg">
<circle cx="16" cy="16.0001" r="16" fill="#1C80A0"/>
<path d="M24.7188 16.2501C24.7188 20.6094 21.5195 24.2305 17.3359 24.8633V18.7813H19.375L19.7617 16.2501H17.3359V14.6329C17.3359 13.9297 17.6875 13.2618 18.7773 13.2618H19.8672V11.1172C19.8672 11.1172 18.8828 10.9415 17.8984 10.9415C15.9297 10.9415 14.6289 12.1719 14.6289 14.3516V16.2501H12.4141V18.7813H14.6289V24.8633C10.4453 24.2305 7.28125 20.6094 7.28125 16.2501C7.28125 11.4337 11.1836 7.53131 16 7.53131C20.8164 7.53131 24.7188 11.4337 24.7188 16.2501Z" fill="white"/>
</svg>
