<svg width="32" height="32" viewBox="0 0 32 32" fill="none" xmlns="http://www.w3.org/2000/svg">
<circle cx="16" cy="16.0001" r="16" fill="#1C80A0"/>
<path d="M16 14.4297C17.1328 14.4297 18.0703 15.3672 18.0703 16.5001C18.0703 16.8907 17.9531 17.2422 17.7969 17.5547C16.9766 18.961 14.9844 18.961 14.1641 17.5547C13.3828 16.1876 14.3594 14.4297 16 14.4297ZM20.8438 12.8282C21.1953 13.6485 21.1172 15.6016 21.1172 16.5001C21.1172 17.4376 21.1953 19.3907 20.8438 20.211C20.6484 20.7579 20.2188 21.1876 19.6719 21.3829C18.8516 21.7344 16.8984 21.6563 16 21.6563C15.0625 21.6563 13.1094 21.7344 12.2891 21.3829C11.7422 21.1876 11.3125 20.7579 11.1172 20.211C10.8047 19.3907 10.8438 17.4376 10.8438 16.5001C10.8438 15.6016 10.8047 13.6485 11.1172 12.8282C11.3125 12.2813 11.7422 11.8516 12.2891 11.6563C13.1094 11.3047 15.0625 11.3829 16 11.3829C16.8984 11.3829 18.8516 11.3047 19.6719 11.6563C20.2188 11.8516 20.6484 12.2813 20.8438 12.8282ZM16 19.7032C17.7578 19.7422 19.2031 18.2969 19.2031 16.5001C19.2031 15.9532 19.0469 15.4063 18.7734 14.8985C17.5234 12.7891 14.4375 12.7891 13.1875 14.8985C11.9766 17.0469 13.5 19.7032 16 19.7032ZM19.3203 13.9219C19.7109 13.9219 20.0625 13.6094 20.0625 13.1797C20.0625 13.0626 20.0234 12.9063 19.9453 12.7891C19.6719 12.3204 18.9688 12.3204 18.6562 12.7891C18.3828 13.2969 18.7344 13.9219 19.3203 13.9219ZM22.875 7.75006C23.8906 7.75006 24.75 8.60944 24.75 9.62506V23.3751C24.75 24.4297 23.8906 25.2501 22.875 25.2501H9.125C8.07031 25.2501 7.25 24.4297 7.25 23.3751V9.62506C7.25 8.60944 8.07031 7.75006 9.125 7.75006H22.875ZM22.1719 19.0782C22.25 18.0626 22.25 14.9766 22.1719 13.961C22.1328 12.9454 21.8984 12.0469 21.1953 11.3438C20.4531 10.6016 19.5547 10.3672 18.5781 10.3282C17.5234 10.2501 14.4375 10.2501 13.4219 10.3282C12.4062 10.3672 11.5078 10.6016 10.8047 11.3047C10.0625 12.0469 9.82812 12.9454 9.78906 13.9219C9.71094 14.9766 9.71094 18.0626 9.78906 19.0782C9.82812 20.0938 10.0625 20.9922 10.8047 21.6954C11.5078 22.4376 12.4062 22.6719 13.4219 22.711C14.4375 22.7891 17.5234 22.7891 18.5781 22.711C19.5547 22.6719 20.4531 22.4376 21.1953 21.6954C21.8984 20.9922 22.1328 20.0938 22.1719 19.0782Z" fill="white"/>
</svg>
