<svg width="32" height="32" viewBox="0 0 32 32" fill="none" xmlns="http://www.w3.org/2000/svg">
<circle cx="16" cy="16.0001" r="16" fill="#1C80A0"/>
<path d="M7 11.7501C7 10.5196 7.98438 9.50006 9.25 9.50006H22.75C23.9805 9.50006 25 10.5196 25 11.7501V20.7501C25 22.0157 23.9805 23.0001 22.75 23.0001H9.25C7.98438 23.0001 7 22.0157 7 20.7501V11.7501ZM8.6875 11.7501V12.5587L14.7344 17.5157C15.4727 18.1133 16.4922 18.1133 17.2305 17.5157L23.3125 12.5587V11.7501C23.3125 11.4688 23.0312 11.1876 22.75 11.1876H9.25C8.93359 11.1876 8.6875 11.4688 8.6875 11.7501ZM8.6875 14.7383V20.7501C8.6875 21.0665 8.93359 21.3126 9.25 21.3126H22.75C23.0312 21.3126 23.3125 21.0665 23.3125 20.7501V14.7383L18.3203 18.8165C16.9492 19.9415 15.0156 19.9415 13.6445 18.8165L8.6875 14.7383Z" fill="white"/>
</svg>
