<svg width="32" height="32" viewBox="0 0 32 32" fill="none" xmlns="http://www.w3.org/2000/svg">
<circle cx="16" cy="16.0001" r="16" fill="#1C80A0"/>
<path d="M23.4062 8.78131C23.75 8.87506 24 9.15631 24 9.50006C24 17.5313 17.5 24.0001 9.5 24.0001C9.125 24.0001 8.84375 23.7813 8.75 23.4376L8 20.1876C7.9375 19.8438 8.09375 19.4688 8.4375 19.3126L11.9375 17.8126C12.25 17.6876 12.5938 17.7813 12.8125 18.0313L14.375 19.9376C16.8125 18.7813 18.7812 16.7813 19.9062 14.4063L18 12.8438C17.75 12.6251 17.6562 12.2813 17.7812 11.9688L19.2812 8.46881C19.4375 8.12506 19.8125 7.93756 20.1562 8.03131L23.4062 8.78131Z" fill="white"/>
</svg>
